# xmcd
#
# Track frame offsets: 
#        150
#        17005
#        34592
#        46065
#        60082
#        79550
#        93770
#        109177
#        122142
#        137017
#
# Disc length: 2075 seconds
#
# Revision: 4
# Processed by: cddbd v1.5.2PL0 Copyright (c) Steve Scherf et al.
# Submitted via: ExactAudioCopyFreeDBPlugin 1.0
#
DISCID=6b08190a
DTITLE=Garth Brooks - No Fences
DYEAR=1990
DGENRE=Country
TTITLE0=The Thunder Rolls
TTITLE1=New Way to Fly
TTITLE2=Two of a Kind, Workin' on a Full House
TTITLE3=Victim of the Game
TTITLE4=Friends in Low Places
TTITLE5=Wild Horses
TTITLE6=Unanswered Prayers
TTITLE7=Same Old Story
TTITLE8=Mr. Blue
TTITLE9=Wolves
EXTD=YEAR: 1990
EXTT0=
EXTT1=
EXTT2=
EXTT3=
EXTT4=
EXTT5=
EXTT6=
EXTT7=
EXTT8=
EXTT9=
PLAYORDER=
